<?xml version="1.0" encoding="utf-8"?>
<!-- Generator: Adobe Illustrator 16.0.0, SVG Export Plug-In . SVG Version: 6.00 Build 0)  -->
<!DOCTYPE svg PUBLIC "-//W3C//DTD SVG 1.0//EN" "http://www.w3.org/TR/2001/REC-SVG-20010904/DTD/svg10.dtd">
<svg version="1.0" xmlns="http://www.w3.org/2000/svg" xmlns:xlink="http://www.w3.org/1999/xlink" x="0px" y="0px" width="348px"
	 height="145px" viewBox="0 0 348 145" enable-background="new 0 0 348 145" xml:space="preserve">
<g id="Layer_1" display="none">
	<g display="inline">
		<path fill="#34679A" d="M39.005,66.837v-2.793c-0.035-1.451-0.643-2.663-1.829-3.631c-1.184-0.963-2.744-1.468-4.68-1.504
			c-4.104,0.104-7.271,1.36-9.501,3.775c-2.23,2.415-3.362,5.379-3.389,8.893c0.099,3.479,1.316,6.317,3.654,8.512
			c2.338,2.197,5.195,3.329,8.57,3.401c2.175-0.027,3.892-0.496,5.153-1.402c1.262-0.904,1.906-2.094,1.933-3.559V75.78h-0.221
			c-0.418,0.577-1.144,1.085-2.181,1.522c-1.036,0.442-2.406,0.671-4.108,0.694c-2.037-0.031-3.642-0.707-4.812-2.027
			c-1.167-1.315-1.765-3.077-1.789-5.28c0.059-1.817,0.712-3.311,1.96-4.497c1.252-1.18,2.771-1.792,4.551-1.838
			c1.711,0.019,3.118,0.262,4.212,0.725c1.099,0.469,1.851,1.054,2.257,1.758H39.005z"/>
		<path fill="#34679A" d="M57.063,64.931v-2.126c0.022-0.955-0.342-1.833-1.101-2.627c-0.756-0.797-2.044-1.221-3.86-1.27
			c-3.117,0.09-5.374,1.05-6.762,2.879c-1.393,1.829-2.077,3.982-2.05,6.464v10.984c0.014,1.243,0.406,2.189,1.171,2.833
			c0.771,0.648,1.825,0.974,3.167,0.977h1.64V69.313c0.005-1.801,0.36-3.103,1.063-3.904c0.703-0.808,1.721-1.199,3.054-1.186
			c0.766,0.005,1.428,0.081,1.978,0.222c0.549,0.14,1.045,0.301,1.478,0.486H57.063z"/>
		<path fill="#34679A" d="M80.566,67.855c-0.085-2.888-1.062-5.141-2.918-6.771c-1.861-1.628-4.078-2.456-6.645-2.488
			c-3.469,0.045-6.271,1.212-8.403,3.5c-2.13,2.29-3.229,5.447-3.288,9.479c0.117,3.695,1.333,6.61,3.64,8.741
			c2.311,2.131,5.01,3.216,8.097,3.261c3.225-0.035,5.486-0.554,6.776-1.558c1.288-1,1.91-2.285,1.86-3.848v-1.86h-0.221
			c-0.986,0.869-2.13,1.468-3.441,1.798c-1.307,0.322-2.595,0.477-3.865,0.463c-1.784-0.018-3.28-0.459-4.492-1.329
			c-1.212-0.871-1.942-2.063-2.198-3.586h3.897c3.915,0.032,6.771-0.387,8.56-1.257C79.71,71.53,80.594,70.013,80.566,67.855
			L80.566,67.855z M74.99,67.147c0.062,0.83-0.387,1.424-1.347,1.779c-0.959,0.357-2.816,0.532-5.565,0.522h-2.657l0.045-0.796
			c0.085-1.415,0.577-2.609,1.473-3.578c0.896-0.968,2.072-1.478,3.533-1.518c1.387,0,2.486,0.302,3.288,0.896
			C74.561,65.053,74.971,65.949,74.99,67.147L74.99,67.147z"/>
		<g>
			<defs>
				<rect id="SVGID_1_" x="19.606" y="53.759" width="307.802" height="36.874"/>
			</defs>
			<clipPath id="SVGID_2_">
				<use xlink:href="#SVGID_1_"  overflow="visible"/>
			</clipPath>
			<path clip-path="url(#SVGID_2_)" fill="#34679A" d="M103.89,74.896v-5.493c-0.09-4.049-1.108-6.866-3.054-8.447
				c-1.952-1.581-4.298-2.338-7.042-2.271c-3.113,0.077-5.347,0.721-6.699,1.928c-1.352,1.203-2.014,2.51-1.983,3.92v1.901h0.22
				c0.438-0.599,1.271-1.193,2.51-1.789c1.233-0.59,2.924-0.91,5.064-0.956c1.766-0.026,3.063,0.28,3.897,0.929
				c0.832,0.648,1.248,1.802,1.238,3.456v0.312h-2.082c-4.33,0.044-7.402,0.76-9.222,2.148c-1.815,1.383-2.699,3.163-2.645,5.334
				c0.045,2.234,0.928,4.046,2.658,5.433c1.725,1.383,4.027,2.1,6.906,2.141h1.198c2.699-0.041,4.87-0.834,6.511-2.379
				C103.003,79.515,103.845,77.46,103.89,74.896L103.89,74.896z M98.087,74.942c0.004,1.216-0.312,2.135-0.942,2.748
				c-0.625,0.617-1.585,0.923-2.865,0.928c-1.316-0.009-2.329-0.271-3.042-0.789c-0.711-0.518-1.071-1.244-1.076-2.182
				c-0.04-0.977,0.36-1.726,1.203-2.233c0.847-0.514,2.378-0.775,4.595-0.775h2.126V74.942z"/>
			<path clip-path="url(#SVGID_2_)" fill="#34679A" d="M108.819,60.106v14.349c-0.004,2.807,0.733,4.982,2.215,6.52
				c1.479,1.535,3.722,2.314,6.731,2.338c1.73-0.014,3.032-0.374,3.907-1.082c0.878-0.707,1.316-1.676,1.32-2.905v-2.126h-0.221
				c-0.469,0.289-1.064,0.5-1.785,0.635c-0.721,0.14-1.558,0.207-2.513,0.207c-1.203,0.013-2.132-0.315-2.78-0.986
				c-0.649-0.671-0.978-1.775-0.983-3.312V64.4h4.734c1.217-0.042,2.11-0.356,2.687-0.952c0.577-0.594,0.865-1.22,0.86-1.883v-2.438
				h-8.281v-5.401h-1.374c-0.474,0.009-0.956,0.166-1.446,0.469c-0.492,0.306-0.938,0.693-1.347,1.171
				c-0.631,0.708-1.082,1.393-1.343,2.055C108.94,58.079,108.81,58.975,108.819,60.106L108.819,60.106z"/>
		</g>
		<path fill="#34679A" d="M146.653,67.855c-0.089-2.888-1.063-5.141-2.923-6.771c-1.86-1.628-4.073-2.456-6.641-2.488
			c-3.472,0.045-6.271,1.212-8.406,3.5c-2.13,2.29-3.226,5.447-3.284,9.479c0.117,3.695,1.329,6.61,3.64,8.741
			c2.312,2.131,5.01,3.216,8.095,3.261c3.227-0.035,5.483-0.554,6.776-1.558c1.29-1,1.912-2.285,1.862-3.848v-1.86h-0.226
			c-0.982,0.869-2.125,1.468-3.437,1.798c-1.307,0.322-2.6,0.477-3.871,0.463c-1.78-0.018-3.274-0.459-4.487-1.329
			c-1.212-0.871-1.947-2.063-2.198-3.586h3.896c3.916,0.032,6.768-0.387,8.56-1.257C145.797,71.53,146.681,70.013,146.653,67.855
			L146.653,67.855z M141.076,67.147c0.063,0.83-0.388,1.424-1.347,1.779c-0.959,0.357-2.815,0.532-5.563,0.522h-2.659l0.046-0.796
			c0.085-1.415,0.577-2.609,1.473-3.578c0.896-0.968,2.073-1.478,3.531-1.518c1.388,0,2.488,0.302,3.29,0.896
			C140.648,65.053,141.059,65.949,141.076,67.147L141.076,67.147z"/>
		<path fill="#D25570" d="M180.604,68.711c-0.067-3.861-1.347-6.993-3.843-9.394c-2.491-2.406-5.789-3.645-9.885-3.716
			c-3.433,0.045-6.41,0.856-8.934,2.441c-2.527,1.582-4.481,3.676-5.874,6.28c-1.389,2.6-2.091,5.452-2.113,8.552
			c0.121,4.469,1.54,7.942,4.266,10.429c2.721,2.486,6.022,3.749,9.907,3.783c1.454-0.004,2.666-0.057,3.631-0.17
			c0.969-0.107,1.734-0.242,2.302-0.4c0.855-0.262,1.473-0.672,1.848-1.23c0.373-0.559,0.554-1.166,0.544-1.828v-1.461
			c-1.297,0.621-2.595,1.02-3.896,1.189c-1.298,0.172-2.509,0.248-3.631,0.23c-3.153-0.018-5.703-0.959-7.641-2.824
			c-1.938-1.867-2.934-4.557-2.987-8.073c0.1-4.137,1.307-7.376,3.627-9.714c2.316-2.339,5.153-3.533,8.506-3.573
			c3.243,0.059,5.712,0.973,7.406,2.753c1.694,1.779,2.55,4.077,2.559,6.901c-0.067,2.482-0.518,4.286-1.355,5.398
			c-0.838,1.117-1.653,1.667-2.45,1.644c-0.253,0.013-0.47-0.099-0.649-0.347c-0.181-0.248-0.275-0.708-0.284-1.379
			c0-0.474,0.036-1.031,0.109-1.684c0.066-0.65,0.179-1.343,0.338-2.083c0.116-0.577,0.243-1.189,0.368-1.844
			c0.126-0.647,0.194-1.319,0.203-2.008c-0.085-0.996-0.753-1.893-1.996-2.685c-1.243-0.793-2.541-1.212-3.893-1.257
			c-2.82,0.072-5.101,1.068-6.838,2.982c-1.74,1.919-2.633,4.319-2.687,7.204c0.063,2.095,0.649,3.783,1.758,5.064
			c1.108,1.284,2.37,1.94,3.779,1.979c1.095-0.006,2.041-0.248,2.848-0.734c0.802-0.487,1.555-1.186,2.248-2.1
			c0.293,0.933,0.779,1.635,1.451,2.113c0.671,0.478,1.486,0.722,2.446,0.722c2.576-0.051,4.676-1.078,6.298-3.091
			C179.717,74.771,180.556,72.081,180.604,68.711L180.604,68.711z M168.117,67.738c-0.303,2.126-0.672,3.807-1.108,5.046
			c-0.303,0.842-0.686,1.472-1.145,1.897c-0.465,0.419-1.056,0.629-1.779,0.629c-0.361,0.033-0.721-0.144-1.091-0.531
			c-0.365-0.387-0.563-1.185-0.59-2.393c0.041-1.597,0.433-2.879,1.18-3.838c0.743-0.959,1.591-1.45,2.541-1.477
			c0.478,0.004,0.879,0.063,1.194,0.185C167.635,67.373,167.9,67.535,168.117,67.738L168.117,67.738z"/>
		<path fill="#34679A" d="M203.095,66.837v-2.793c-0.031-1.451-0.64-2.663-1.824-3.631c-1.186-0.963-2.748-1.468-4.686-1.504
			c-4.104,0.104-7.268,1.36-9.502,3.775c-2.229,2.415-3.356,5.379-3.388,8.893c0.104,3.479,1.32,6.317,3.653,8.512
			c2.339,2.197,5.195,3.329,8.574,3.401c2.171-0.027,3.893-0.496,5.153-1.402c1.262-0.904,1.901-2.094,1.929-3.559V75.78h-0.221
			c-0.415,0.577-1.145,1.085-2.181,1.522c-1.036,0.442-2.406,0.671-4.108,0.694c-2.037-0.031-3.641-0.707-4.808-2.027
			c-1.17-1.315-1.766-3.077-1.788-5.28c0.054-1.817,0.707-3.311,1.959-4.497c1.248-1.18,2.767-1.792,4.551-1.838
			c1.712,0.019,3.113,0.262,4.212,0.725c1.095,0.469,1.848,1.054,2.253,1.758H203.095z"/>
		<path fill="#34679A" d="M206.275,71.53c0.022,3.272,1.005,6.074,2.955,8.397c1.946,2.326,4.727,3.543,8.335,3.649
			c3.865-0.089,6.799-1.343,8.804-3.757c2.004-2.41,3.014-5.455,3.022-9.131c-0.022-3.275-1.009-6.083-2.955-8.42
			c-1.951-2.337-4.73-3.563-8.34-3.672c-3.86,0.09-6.798,1.352-8.798,3.776C207.294,64.8,206.284,67.851,206.275,71.53
			L206.275,71.53z M223.237,71.53c0,1.983-0.423,3.596-1.274,4.826c-0.852,1.234-2.141,1.87-3.866,1.905
			c-1.959-0.019-3.396-0.69-4.312-2.009c-0.914-1.321-1.364-3.176-1.355-5.564c0-2.006,0.433-3.627,1.288-4.866
			c0.86-1.239,2.145-1.874,3.848-1.91c1.941,0.018,3.374,0.688,4.298,2.014C222.787,67.251,223.242,69.12,223.237,71.53
			L223.237,71.53z"/>
		<path fill="#34679A" d="M232.915,71.53c0.022,3.272,1.009,6.074,2.955,8.397c1.951,2.326,4.73,3.543,8.339,3.649
			c3.866-0.089,6.799-1.343,8.804-3.757c2-2.41,3.009-5.455,3.022-9.131c-0.022-3.275-1.009-6.083-2.96-8.42
			c-1.946-2.337-4.726-3.563-8.334-3.672c-3.866,0.09-6.799,1.352-8.804,3.776C233.933,64.8,232.929,67.851,232.915,71.53
			L232.915,71.53z M249.877,71.53c0.005,1.983-0.424,3.596-1.271,4.826c-0.852,1.234-2.14,1.87-3.865,1.905
			c-1.96-0.019-3.397-0.69-4.312-2.009c-0.915-1.321-1.37-3.176-1.356-5.564c0-2.006,0.428-3.627,1.289-4.866
			c0.86-1.239,2.14-1.874,3.847-1.91c1.942,0.018,3.375,0.688,4.294,2.014C249.427,67.251,249.886,69.12,249.877,71.53
			L249.877,71.53z"/>
		<path fill="#34679A" d="M283.473,70.377c-0.055-3.126-1.072-5.842-3.051-8.149c-1.978-2.307-4.577-3.514-7.798-3.632
			c-4.182,0.063-7.227,1.312-9.137,3.739c-1.91,2.429-2.852,5.655-2.82,9.683v14.439c0.04,1.293,0.469,2.303,1.284,3.019
			c0.815,0.721,1.774,1.086,2.879,1.099h1.855V80.033c0.608,1.04,1.433,1.883,2.465,2.535c1.036,0.654,2.221,0.987,3.559,1.009
			c3.492-0.071,6.154-1.314,7.992-3.725C282.535,77.438,283.459,74.279,283.473,70.377L283.473,70.377z M277.363,71.928
			c-0.027,1.933-0.478,3.474-1.356,4.618c-0.883,1.145-2.054,1.735-3.519,1.761c-1.793-0.014-3.221-0.662-4.271-1.95
			c-1.055-1.285-1.595-3.131-1.617-5.537c0.004-2.091,0.445-3.762,1.315-5.019c0.874-1.256,2.131-1.901,3.775-1.932
			c1.905-0.014,3.324,0.626,4.262,1.923C276.895,67.084,277.363,69.134,277.363,71.928L277.363,71.928z"/>
		<path fill="#34679A" d="M308.237,67.855c-0.09-2.888-1.063-5.141-2.924-6.771c-1.86-1.628-4.072-2.456-6.646-2.488
			c-3.469,0.045-6.271,1.212-8.402,3.5c-2.131,2.29-3.226,5.447-3.288,9.479c0.117,3.695,1.333,6.61,3.645,8.741
			s5.005,3.216,8.091,3.261c3.23-0.035,5.488-0.554,6.776-1.558c1.293-1,1.91-2.285,1.86-3.848v-1.86h-0.221
			c-0.982,0.869-2.126,1.468-3.438,1.798c-1.311,0.322-2.6,0.477-3.87,0.463c-1.779-0.018-3.279-0.459-4.491-1.329
			c-1.208-0.871-1.941-2.063-2.194-3.586h3.897c3.915,0.032,6.767-0.387,8.555-1.257C307.381,71.53,308.26,70.013,308.237,67.855
			L308.237,67.855z M302.655,67.147c0.063,0.83-0.383,1.424-1.343,1.779c-0.964,0.357-2.815,0.532-5.563,0.522h-2.658l0.045-0.796
			c0.086-1.415,0.577-2.609,1.469-3.578c0.896-0.968,2.072-1.478,3.532-1.518c1.392,0,2.486,0.302,3.289,0.896
			C302.228,65.053,302.638,65.949,302.655,67.147L302.655,67.147z"/>
		<path fill="#34679A" d="M326.596,64.931v-2.126c0.022-0.955-0.342-1.833-1.099-2.627c-0.757-0.797-2.046-1.221-3.861-1.27
			c-3.117,0.09-5.37,1.05-6.763,2.879c-1.392,1.829-2.076,3.982-2.05,6.464v10.984c0.014,1.243,0.406,2.189,1.177,2.833
			c0.766,0.648,1.819,0.974,3.167,0.977h1.635V69.313c0.005-1.801,0.36-3.103,1.063-3.904c0.703-0.808,1.721-1.199,3.055-1.186
			c0.771,0.005,1.428,0.081,1.978,0.222c0.55,0.14,1.045,0.301,1.478,0.486H326.596z"/>
	</g>
</g>
<g id="Layer_2" display="none">
	<g display="inline">
		<path d="M47.383,73.126v0.931c1.86,1.249,3.095,2.484,3.72,3.72h0.93h7.44v7.44h-7.44h-0.93c-1.25,3.109-3.575,4.65-6.975,4.65
			c-3.415,0-5.74-1.541-6.975-4.65h-7.44c-3.109,0-5.74-1.076-7.905-3.255c-2.18-2.166-3.255-4.796-3.255-7.905V45.226h6.51v10.23
			h10.23v7.44h-10.23v11.161c0,0.625,0.465,1.396,1.395,2.325c0.93,0.93,2.006,1.396,3.255,1.396h7.44
			c0.61-1.861,1.86-3.095,3.72-3.72v-6.51c0-3.72,1.076-6.656,3.255-8.836c2.166-2.165,4.796-3.255,7.905-3.255h6.51
			c3.096,0,5.726,1.09,7.905,3.255c2.166,2.18,3.255,5.116,3.255,8.836v5.58H47.383z M44.128,78.707
			c-1.555,0-2.325,0.93-2.325,2.789c0,1.86,0.771,2.791,2.325,2.791c1.541,0,2.325-0.931,2.325-2.791
			C46.453,79.637,45.669,78.707,44.128,78.707z M63.193,66.616c-0.625-1.236-1.25-2.166-1.86-2.79
			c-0.625-0.61-1.555-0.93-2.791-0.93h-6.51c-1.249,0-2.179,0.32-2.79,0.93c-0.625,0.624-1.25,1.554-1.86,2.79H63.193z
			 M293.836,49.876v53.941c0,3.109-1.089,5.74-3.255,7.905c-2.179,2.179-4.809,3.255-7.904,3.255H132.944
			c-1.249,3.109-3.415,4.65-6.51,4.65c-5.58,0-8.37-2.79-8.37-8.371c0-3.095,1.541-5.579,4.65-7.439V67.546
			c0-1.235-0.464-2.326-1.395-3.255c-0.93-0.93-2.019-1.396-3.255-1.396h-6.51c-1.25,1.859-2.485,3.11-3.72,3.72v17.671v0.93h-7.44
			V66.616c-1.86-0.61-3.11-1.861-3.72-3.72H83.653c-0.625,0-1.395,0.465-2.325,1.396c-0.93,0.929-1.395,2.02-1.395,3.255v6.51
			c0,0.625,0.465,1.396,1.395,2.325c0.93,0.93,1.7,1.396,2.325,1.396h13.95v7.44h-13.95c-3.109,0-5.74-1.076-7.905-3.255
			c-2.18-2.166-3.255-4.796-3.255-7.905v-6.51c0-3.72,1.076-6.656,3.255-8.836c2.165-2.165,4.795-3.255,7.905-3.255h13.021
			c0.61-1.235,1.86-2.47,3.72-3.72v-18.6h7.44v18.6c1.235,1.25,2.47,2.485,3.72,3.72h6.51c3.096,0,5.886,1.09,8.37,3.255
			c2.471,2.18,3.401,5.116,2.79,8.836v36.271c1.86,1.25,3.096,2.485,3.72,3.721h22.32c-2.484-1.235-4.65-3.097-6.51-5.581
			c-9.301-8.675-13.951-19.371-13.951-32.086c0-12.701,4.491-23.396,13.485-32.086c8.981-8.675,19.676-13.02,32.085-13.02
			c12.396,0,23.091,4.345,32.086,13.02c8.98,8.689,13.485,19.531,13.485,32.551c0,5.58-1.715,10.085-5.115,13.485
			c-3.415,3.415-8.225,5.116-14.416,5.116c-5.58,0-10.549-1.861-14.88-5.581c-3.109,3.109-6.829,4.65-11.16,4.65
			c-4.969,0-9.154-1.7-12.555-5.114c-3.415-3.402-5.115-7.587-5.115-12.556c0-4.956,1.7-9.3,5.115-13.02
			c3.4-3.72,7.586-5.581,12.555-5.581c4.956,0,8.981,1.861,12.09,5.581c3.096,3.72,4.65,8.064,4.65,13.02
			c0,1.249,0.306,2.484,0.931,3.72c0,1.859,0.305,3.109,0.93,3.72c2.471,2.485,4.955,3.719,7.439,3.719
			c3.721,0,6.816-1.234,9.301-3.719c1.859-1.861,2.79-4.331,2.79-7.44c0-10.536-3.72-19.53-11.16-26.971
			s-16.436-11.161-26.971-11.161c-10.549,0-19.385,3.72-26.505,11.161c-7.135,7.44-10.696,16.275-10.696,26.505
			c0,10.23,3.401,19.066,10.23,26.507c6.815,6.828,14.256,10.549,22.32,11.16h106.952c0.61,0,1.395-0.307,2.325-0.931
			c0.93-0.61,1.396-1.54,1.396-2.79V85.217h-10.23c-3.72,0-6.67-1.076-8.836-3.255c-2.18-2.166-3.255-4.796-3.255-7.905V55.456h7.44
			v18.601c0,0.625,0.465,1.396,1.396,2.325c0.929,0.93,2.005,1.396,3.255,1.396h10.23V50.806v-0.93H293.836z M104.114,57.316
			c-1.86,0-2.79,0.784-2.79,2.325c0,1.554,0.93,2.325,2.79,2.325c1.86,0,2.791-0.771,2.791-2.325
			C106.904,58.1,105.974,57.316,104.114,57.316z M125.969,108.467c-1.555,0-2.325,0.931-2.325,2.79c0,1.861,0.77,2.791,2.325,2.791
			c1.541,0,2.325-0.93,2.325-2.791C128.294,109.397,127.51,108.467,125.969,108.467z M186.885,62.431
			c-1.859-2.165-4.186-3.255-6.975-3.255c-2.79,0-4.97,1.09-6.511,3.255c-1.554,2.18-2.324,4.65-2.324,7.44s0.771,5.274,2.324,7.44
			c1.541,2.179,3.721,3.255,6.511,3.255c2.789,0,5.115-1.076,6.975-3.255c1.861-2.166,2.79-4.65,2.79-7.44
			S188.746,64.61,186.885,62.431z M262.217,67.546v16.741v0.93h-7.44v-17.67c0-1.235-0.465-2.326-1.396-3.255
			c-0.93-0.93-2.02-1.396-3.255-1.396h-4.649c-1.249,2.484-3.11,4.345-5.581,5.58v10.231h-7.439V67.546v-0.93
			c-1.86-1.236-2.791-3.4-2.791-6.51c0-4.956,2.472-7.44,7.44-7.44c3.097,0,5.261,0.931,6.511,2.79h6.51
			c3.72,0,6.656,1.09,8.836,3.255C261.126,60.89,262.217,63.826,262.217,67.546z M237.571,58.246c-1.555,0-2.325,0.785-2.325,2.326
			c0,1.554,0.771,2.325,2.325,2.325c1.54,0,2.324-0.771,2.324-2.325C239.896,59.03,239.111,58.246,237.571,58.246z M329.178,80.566
			c0,4.969-2.79,7.44-8.371,7.44c-2.484,0-4.649-0.931-6.51-2.79h-6.51c-3.109,0-5.74-1.076-7.904-3.255
			c-2.18-2.166-3.256-4.796-3.256-7.905V49.876h6.511v24.181c0,0.625,0.465,1.396,1.395,2.325c0.93,0.93,2.006,1.396,3.255,1.396
			h5.58c0.611-2.471,2.471-4.331,5.58-5.581v-16.74h5.58h0.93v18.601C327.929,75.306,329.178,77.47,329.178,80.566z M320.807,77.777
			c-1.859,0-2.79,0.784-2.79,2.325c0,1.555,0.931,2.324,2.79,2.324c1.861,0,2.791-0.77,2.791-2.324
			C323.598,78.561,322.668,77.777,320.807,77.777z"/>
	</g>
</g>
<g id="Layer_3" display="none">
	<polygon display="inline" points="92.292,12.201 72.143,32.142 51.991,52.083 51.991,91.966 51.991,132.191 92.191,132.191 
		92.191,91.966 112.184,72.022 132.15,52.083 112.222,32.142 	"/>
	<polygon display="inline" points="171.939,52.285 211.939,52.285 191.998,32.328 172.058,12.378 152.062,32.313 132.065,52.25 
		132.065,92.135 152.062,112.072 172.029,132.015 191.985,112.25 211.939,92.487 171.939,92.487 	"/>
	<polygon display="inline" points="251.688,52.285 291.703,52.285 271.762,32.328 251.822,12.378 231.816,32.313 211.812,52.25 
		211.812,92.135 231.816,112.072 251.79,132.015 271.746,112.25 291.703,92.487 251.688,92.487 	"/>
</g>
<g id="Layer_5" display="none">
	<g display="inline">
		<path fill="#7DBEE9" stroke="#7DBEE9" stroke-width="0.0938" stroke-miterlimit="10" d="M262.444,11.584
			c4.012-1.173,8.324-1.315,12.385-0.285c0.459,0.143,0.951,0.223,1.396,0.444c-0.302,1.11-0.746,2.189-0.952,3.315
			c2.585,0.872,5.027,2.251,7.041,4.09c0.048-0.015,0.158-0.047,0.207-0.063c0.76-0.793,1.41-1.743,2.219-2.474
			c3.536,3.282,6.074,7.643,7.026,12.368c-0.937,0.223-1.871,0.414-2.824,0.604c-0.206,0.063-0.538,0.016-0.569,0.316
			c0.332,1.617,0.46,3.298,0.348,4.948c-0.016,1.031-0.27,2.03-0.348,3.044c1.125,0.191,2.22,0.524,3.346,0.682
			c-0.904,4.408-3.22,8.515-6.438,11.655c-0.143,0.112-0.238,0.286-0.428,0.301c-0.715-0.856-1.475-1.696-2.252-2.489
			c-2.03,1.728-4.282,3.25-6.836,4.106c-0.253,0.031-0.157,0.364-0.109,0.523c0.284,0.966,0.729,1.919,0.903,2.918
			c-4.378,1.427-9.183,1.602-13.606,0.316c0.302-1.125,0.682-2.204,0.969-3.313c-2.682-0.793-5.219-2.093-7.374-3.902
			c-0.843,0.777-1.524,1.745-2.333,2.585c-3.772-3.219-6.471-7.691-7.564-12.527c1.127-0.239,2.237-0.492,3.362-0.698
			c-0.443-2.743-0.634-5.598,0-8.341c-0.173-0.238-0.491-0.206-0.744-0.286c-0.889-0.189-1.776-0.349-2.648-0.586
			c0.982-4.726,3.551-9.086,7.12-12.322c0.856,0.793,1.554,1.713,2.378,2.538c2.126-1.823,4.583-3.283,7.279-4.076l0.08-0.095
			C263.174,13.773,262.762,12.695,262.444,11.584 M267.439,23.398c-4.457,0.683-8.151,4.583-8.628,9.055
			c-0.016,1.221-0.11,2.458,0.224,3.647c0.729,3.251,3.171,6.042,6.263,7.279c3.107,1.285,6.836,0.904,9.61-0.984
			c2.552-1.664,4.33-4.503,4.646-7.547c0.38-3.171-0.841-6.517-3.188-8.689C274.067,23.859,270.627,22.86,267.439,23.398
			L267.439,23.398z"/>
		<path fill="#8B8E91" stroke="#8B8E91" stroke-width="0.0938" stroke-miterlimit="10" d="M81.602,13.995
			c3.092-1.379,6.327-2.601,9.737-2.917c1.093-0.047,2.283-0.127,3.313,0.349c-2.695,3.299-5.376,6.612-8.055,9.942l-0.016,0.159
			c0.808,1.396,1.666,2.792,2.458,4.218c1.713,0.096,3.426,0.096,5.138,0.19c1.523-1.886,3.029-3.805,4.567-5.692
			c-0.127-2.633-0.349-5.281-0.492-7.914c1.935-0.396,3.853-0.825,5.788-1.236c1.507,3.06,3.061,6.089,4.566,9.15
			c-0.11,0.967-0.602,1.935-0.269,2.902c2.109,9.245,4.202,18.474,6.296,27.718c1.221,5.281,2.378,10.578,3.616,15.858
			c0.872-0.063,1.728-0.333,2.585-0.476c0.935-0.238,1.981-0.174,2.79,0.364c0.636,0.429,1.016,1.142,1.19,1.872
			c0.571,2.3,0.983,4.63,1.396,6.96c0.111,1.571-1.094,2.872-1.158,4.426c0.333,2.203,0.713,4.424,1.459,6.518
			c1.633,2.998,3.045,6.104,4.472,9.196c1.236,2.76,2.49,5.534,3.488,8.391c0.429,1.188,0.508,2.456,0.698,3.692
			c0.84,6.787,1.57,13.606,2.315,20.41c-0.016,0.363,0.159,0.84-0.206,1.094c-2.014,1.792-4.297,3.346-6.867,4.248
			c-2.141,0.764-4.471,0.651-6.691,0.382c-1.349-0.175-2.696-0.475-3.98-0.936c-0.175-0.063-0.397-0.126-0.477-0.332
			c-1.521-2.855-2.95-5.757-4.25-8.723c-1.22-2.791-2.363-5.629-3.124-8.579c-1.047-3.901-1.936-7.849-2.237-11.877
			c-0.301-3.87,0.079-7.754,0.127-11.64c-0.017-1.459,0.048-2.917-0.159-4.361c-0.365-1.728-0.872-3.44-1.474-5.104
			c-0.254-0.635-0.539-1.302-1.126-1.698c-0.539-0.364-1.015-0.825-1.569-1.142c-0.048,0.984,0.031,1.966-0.048,2.949
			c-0.443,0-0.887,0.016-1.332,0.016c-0.079-1.537,0-3.061-0.032-4.582c0.254,0,0.507-0.017,0.761-0.033
			c-0.38-2.203-0.793-4.407-1.221-6.596c-0.19-1.238,0.888-2.253,2.03-2.443c1.427-0.285,2.87-0.556,4.281-0.872
			c-1.919-8.468-3.837-16.92-5.756-25.372c-0.063-0.349-0.127-0.682-0.254-1.015c-1.872,0.919-3.695,1.934-5.534,2.933
			c-0.825,0.476-1.712,0.873-2.41,1.538c-1.491,1.428-2.569,3.22-3.601,4.996c-0.919,1.681-1.807,3.394-2.537,5.17
			c-1.205,4.772-2.188,9.609-3.25,14.414c-0.523,2.426-1.047,4.853-1.555,7.279c0.271,0,0.54-0.017,0.793-0.017
			c0.064,0.763,0.047,1.522,0.032,2.284c-0.444,0.016-0.872,0.031-1.3,0.031c-0.27,0.762-0.365,1.555-0.54,2.332
			c-0.666,3.092-1.332,6.199-1.982,9.292c-1.522,7.073-2.887,14.193-4.916,21.138c-1.127,3.822-2.363,7.629-4.028,11.26
			c-1.078,2.252-2.204,4.631-4.17,6.264c-1.332,1.126-3.092,1.618-4.805,1.587c-1.666-0.032-3.299-0.351-4.948-0.573
			c-0.809-0.094-1.617-0.3-2.363-0.633c-3.283-1.411-5.376-5.185-4.741-8.723c0.603-3.806,1.729-7.5,2.775-11.211
			c0.999-3.329,1.856-6.724,2.998-10.022c2.172-6.5,4.487-12.955,6.803-19.41c3.267-9.212,6.931-18.283,10.212-27.496
			c0.713-1.824,0.777-3.806,1.094-5.709c0.271-1.316-0.047-2.633-0.38-3.901c-1.157-4.123-2.997-8.023-4.63-11.972
			c-0.508-1.364-0.396-2.855-0.19-4.266C71.738,21.956,75.956,16.516,81.602,13.995 M101.821,35.134
			c0.237,0.189,0.491,0.365,0.761,0.523c-0.064-0.429-0.191-0.825-0.254-1.253C102.091,34.594,102.01,34.911,101.821,35.134
			 M62.335,117.356c-1.396,0.316-2.696,1.363-3.013,2.789c0,0.715-0.143,1.477,0.253,2.11c0.967,1.999,3.6,2.712,5.566,1.84
			c1.22-0.508,2.188-1.648,2.299-2.998c0.127-1.457-0.856-2.837-2.156-3.408C64.38,117.182,63.318,117.292,62.335,117.356
			L62.335,117.356z"/>
		<path fill="#424243" stroke="#424243" stroke-width="0.0938" stroke-miterlimit="10" d="M150.456,20.925
			c7.834-1.125,15.73-1.824,23.645-2.109c7.722-0.269,15.493-0.269,23.168,0.761c8.802,1.142,17.603,3.647,25.071,8.564
			c4.552,3.06,8.721,6.77,11.987,11.195c3.395,4.567,5.822,9.833,7.311,15.318c1.92,7.009,2.379,14.351,1.967,21.584
			c-0.411,7.31-1.855,14.588-4.693,21.359c-2.363,5.613-5.725,10.831-9.975,15.208c-4.044,4.232-8.976,7.563-14.272,10.005
			c-9.371,4.313-19.679,6.201-29.924,6.82c-4.677,0.268-9.339,0.237-14.018,0.142c-6.771-0.159-13.542-0.572-20.282-1.379
			c-0.032-15.479,0-30.955-0.016-46.448c0-18.125,0-36.251,0-54.392C150.456,25.349,150.377,23.129,150.456,20.925 M170.358,35.388
			c0.015,26.07,0.015,52.141,0,78.226c1.966,0.35,3.979,0.396,5.978,0.461c2.38,0.031,4.774,0.031,7.152,0.016
			c6.581-0.176,13.226-1.332,19.203-4.187c5.503-2.585,10.26-6.74,13.513-11.878c4.011-6.312,5.817-13.781,6.311-21.154
			c0.507-7.58-0.016-15.397-2.966-22.455c-1.665-3.995-4.107-7.674-7.264-10.64c-3.599-3.425-8.071-5.851-12.812-7.342
			c-5.613-1.776-11.561-2.315-17.426-2.173C178.129,34.341,174.195,34.531,170.358,35.388L170.358,35.388z"/>
		<path fill="#424243" stroke="#424243" stroke-width="0.0938" stroke-miterlimit="10" d="M260.382,59.887
			c0.175-0.158,0.429-0.031,0.634-0.063c5.853-0.016,11.704,0.032,17.555-0.016c0.144,0.856,0.033,1.76,0.063,2.632
			c0,22.423,0,44.829,0,67.236c0,0.287,0.032,0.604-0.046,0.889c-4.282-0.048-8.548,0-12.814-0.016
			c-1.791,0.016-3.567-0.032-5.343,0.016c-0.098-0.555-0.032-1.11-0.049-1.665c0.983-0.111,1.983-0.047,2.966-0.047
			c0.016-0.445,0.016-0.889,0-1.333c-0.982-0.016-1.982,0.048-2.966-0.047c0-0.729,0-1.476,0-2.204c1.54-0.017,3.062,0,4.599,0
			c0.461,0,0.922,0.031,1.365-0.08c-0.016-0.381-0.016-0.776,0-1.174c-1.982-0.189-3.98-0.015-5.964-0.08c0-0.729,0-1.442,0-2.155
			c1-0.033,1.983,0.048,2.981-0.048c-0.016-0.413-0.016-0.84,0-1.252c-0.998-0.08-1.981-0.016-2.981-0.031c0-0.777,0-1.556,0-2.316
			c2.966-0.096,5.948-0.017,8.93-0.047c0.046-0.43,0.046-0.856-0.018-1.27c-2.964-0.062-5.946-0.016-8.912-0.031
			c0-0.762,0-1.523,0-2.283c0.983-0.017,1.983,0.047,2.966-0.049c0-0.411,0-0.823,0.016-1.252c-0.998-0.031-1.998,0.049-2.981-0.048
			c0-0.729,0-1.474,0-2.205c1.951-0.079,3.9-0.03,5.852-0.03c0.128-0.429,0.112-0.904,0-1.332c-1.951-0.016-3.9,0.046-5.852-0.033
			c0-0.697-0.016-1.395,0.017-2.093c0.967-0.11,1.967-0.031,2.949-0.047c0-0.445,0-0.888,0-1.316
			c-0.982-0.032-1.982,0.048-2.966-0.048c0-0.744,0-1.491,0-2.251c2.998-0.079,5.995,0,8.976-0.033c0-0.442,0-0.886,0.016-1.315
			c-2.996-0.031-5.993,0.049-8.991-0.046c0-0.747,0-1.492,0-2.237c0.983-0.078,1.983-0.031,2.966-0.031c0-0.443,0-0.889,0-1.332
			c-0.982-0.016-1.982,0.047-2.966-0.032c0-0.729,0-1.475,0-2.204c1.983-0.143,3.981,0.047,5.964-0.078
			c-0.016-0.396-0.016-0.777,0-1.175c-0.237-0.079-0.477-0.11-0.731-0.095c-1.743,0.016-3.487-0.016-5.232,0c0-0.73,0-1.443,0-2.173
			c1-0.047,1.983-0.016,2.981-0.031c0-0.412-0.016-0.841-0.016-1.253c-0.982-0.095-1.982-0.031-2.966-0.031c0-0.778,0-1.556,0-2.332
			c2.998-0.08,5.995,0.031,8.976-0.048c0-0.442,0-0.888,0-1.315c-2.98,0-5.978,0.047-8.976-0.031c-0.016-0.746,0-1.49,0-2.237
			c0.983-0.063,1.983-0.016,2.966-0.032c0.016-0.426,0-0.84,0-1.268c-0.982-0.078-1.982-0.016-2.966-0.031c0-0.762,0-1.508,0-2.269
			c1.903,0,3.807,0,5.709,0c0.412-0.255,0.175-0.888,0.19-1.3c-1.968-0.031-3.933,0.031-5.899-0.031c0-0.73,0-1.443,0-2.173
			c0.952,0.017,1.919,0.032,2.871,0c0.223-0.349,0.048-0.872,0.11-1.285c-0.998-0.032-1.981,0.033-2.981-0.047
			c0-0.761,0-1.538,0-2.315c2.981-0.016,5.948,0.031,8.93-0.016c0.046-0.428,0.046-0.856-0.018-1.267
			c-2.964-0.08-5.946,0.062-8.912-0.064c0-0.555,0-1.111,0-1.665c1,0,1.999,0.079,2.981-0.032c-0.016-0.428-0.016-0.841-0.016-1.253
			c-0.982-0.031-1.982,0.033-2.966-0.047c0-0.73,0-1.475,0-2.22c1.983-0.08,3.981,0.016,5.964-0.047
			c-0.016-0.428-0.016-0.857,0-1.301c-1.982-0.031-3.98,0.063-5.964-0.031c0-0.698,0-1.396,0-2.094
			c0.983-0.112,1.983-0.031,2.966-0.047c0.016-0.444,0.016-0.889,0-1.332c-0.982-0.016-1.982,0.062-2.966-0.048
			c0-0.746,0-1.49,0-2.236c2.998-0.094,5.995,0,8.991-0.047c-0.016-0.428-0.016-0.872,0-1.299c-2.474-0.017-4.946-0.017-7.404-0.017
			C261.428,59.951,260.906,59.999,260.382,59.887L260.382,59.887z"/>
		<path fill="#8B8E91" stroke="#8B8E91" stroke-width="0.0938" stroke-miterlimit="10" d="M260.382,59.887
			c0.524,0.111,1.046,0.064,1.587,0.064c2.458,0,4.931,0,7.404,0.017c-0.016,0.428-0.016,0.872,0,1.299
			c-2.996,0.047-5.993-0.047-8.991,0.047C260.382,60.839,260.398,60.363,260.382,59.887L260.382,59.887z"/>
		<path fill="#8B8E91" stroke="#8B8E91" stroke-width="0.0938" stroke-miterlimit="10" d="M260.382,63.551
			c0.983,0.11,1.983,0.032,2.966,0.048c0.016,0.443,0.016,0.888,0,1.332c-0.982,0.016-1.982-0.065-2.966,0.047
			C260.382,64.502,260.382,64.027,260.382,63.551L260.382,63.551z"/>
		<path fill="#8B8E91" stroke="#8B8E91" stroke-width="0.0938" stroke-miterlimit="10" d="M260.382,67.071
			c1.983,0.094,3.981,0,5.964,0.031c-0.016,0.444-0.016,0.873,0,1.301c-1.982,0.063-3.98-0.032-5.964,0.047
			C260.382,67.991,260.382,67.532,260.382,67.071L260.382,67.071z"/>
		<path fill="#8B8E91" stroke="#8B8E91" stroke-width="0.0938" stroke-miterlimit="10" d="M260.382,70.671
			c0.983,0.08,1.983,0.017,2.966,0.047c0,0.412,0,0.825,0.016,1.253c-0.982,0.11-1.981,0.032-2.981,0.032
			C260.382,71.56,260.382,71.116,260.382,70.671L260.382,70.671z"/>
		<path fill="#8B8E91" stroke="#8B8E91" stroke-width="0.0938" stroke-miterlimit="10" d="M260.382,73.668
			c2.966,0.126,5.948-0.016,8.912,0.064c0.063,0.411,0.063,0.839,0.018,1.267c-2.981,0.047-5.948,0-8.93,0.016
			C260.382,74.557,260.382,74.112,260.382,73.668L260.382,73.668z"/>
		<path fill="#8B8E91" stroke="#8B8E91" stroke-width="0.0938" stroke-miterlimit="10" d="M260.382,77.331
			c1,0.08,1.983,0.016,2.981,0.047c-0.062,0.414,0.112,0.937-0.11,1.285c-0.952,0.032-1.919,0.017-2.871,0
			C260.382,78.219,260.382,77.774,260.382,77.331L260.382,77.331z"/>
		<path fill="#BDBEC0" stroke="#BDBEC0" stroke-width="0.0938" stroke-miterlimit="10" d="M85.789,77.774
			c0.524,0,1.046,0,1.554,0.017c-0.063,2.267-0.031,4.566-0.015,6.849c0.443,0.018,0.888,0.018,1.315,0
			c0.017-2.283,0.032-4.566-0.016-6.849c0.492-0.017,0.983-0.017,1.475,0c-0.015,0.746-0.015,1.49-0.015,2.251
			c0.459,0.062,0.935,0.062,1.395,0c0.017-0.762-0.016-1.506,0-2.251c0.476-0.017,0.951-0.017,1.443,0
			c-0.062,1.49-0.048,2.998-0.016,4.503c0.444,0.048,0.888,0.048,1.316,0.016c0.032-1.506,0.064-3.029-0.015-4.519
			c0.476-0.017,0.951-0.017,1.427,0c-0.032,0.746-0.048,1.505-0.017,2.267c0.429,0.047,0.873,0.031,1.316,0
			c0.048-0.762,0.032-1.521-0.015-2.267c0.522-0.017,1.029-0.017,1.554,0c-0.017,2.283-0.017,4.566,0,6.867
			c0.428,0,0.856,0,1.3-0.031c0.047-2.27,0.031-4.568,0-6.835c0.507-0.017,1.015-0.017,1.521,0c-0.047,0.746-0.047,1.505,0,2.267
			c0.428,0.031,0.872,0.047,1.316,0c0.064-0.762,0.033-1.521-0.016-2.267c0.477,0,0.968-0.017,1.444,0
			c0.032,1.521-0.047,3.044,0.032,4.582c0.444,0,0.889-0.016,1.332-0.016c0.08-0.983,0-1.965,0.048-2.949
			c0.554,0.316,1.031,0.777,1.569,1.142c0.587,0.396,0.872,1.063,1.126,1.698c0.602,1.664,1.109,3.377,1.474,5.104
			c0.207,1.444,0.142,2.902,0.159,4.361c-9.261,0.017-18.521,0-27.783,0c0.65-3.093,1.316-6.2,1.982-9.292
			c0.175-0.777,0.271-1.57,0.54-2.332c0.428,0,0.856-0.016,1.3-0.031C85.836,79.297,85.853,78.537,85.789,77.774L85.789,77.774z"/>
		<path fill="#8B8E91" stroke="#8B8E91" stroke-width="0.0938" stroke-miterlimit="10" d="M87.342,77.792c0.428,0,0.857,0,1.285,0
			c0.048,2.283,0.032,4.566,0.016,6.849c-0.428,0.018-0.872,0.018-1.315,0C87.311,82.357,87.279,80.059,87.342,77.792L87.342,77.792
			z"/>
		<path fill="#8B8E91" stroke="#8B8E91" stroke-width="0.0938" stroke-miterlimit="10" d="M90.102,77.792c0.46,0,0.92,0,1.379,0
			c-0.016,0.746,0.017,1.49,0,2.251c-0.459,0.062-0.936,0.062-1.395,0C90.087,79.281,90.087,78.537,90.102,77.792L90.102,77.792z"/>
		<path fill="#8B8E91" stroke="#8B8E91" stroke-width="0.0938" stroke-miterlimit="10" d="M92.924,77.792c0.428,0,0.856,0,1.285,0
			c0.079,1.49,0.047,3.013,0.015,4.519c-0.428,0.032-0.872,0.032-1.316-0.016C92.876,80.789,92.862,79.281,92.924,77.792
			L92.924,77.792z"/>
		<path fill="#8B8E91" stroke="#8B8E91" stroke-width="0.0938" stroke-miterlimit="10" d="M95.637,77.792c0.428,0,0.856,0,1.285,0
			c0.046,0.746,0.063,1.505,0.015,2.267c-0.443,0.031-0.888,0.047-1.316,0C95.589,79.297,95.604,78.537,95.637,77.792L95.637,77.792
			z"/>
		<path fill="#8B8E91" stroke="#8B8E91" stroke-width="0.0938" stroke-miterlimit="10" d="M98.476,77.792c0.428,0,0.872,0,1.3,0
			c0.031,2.267,0.047,4.566,0,6.835c-0.444,0.031-0.873,0.031-1.3,0.031C98.459,82.357,98.459,80.074,98.476,77.792L98.476,77.792z"
			/>
		<path fill="#8B8E91" stroke="#8B8E91" stroke-width="0.0938" stroke-miterlimit="10" d="M101.297,77.792c0.444,0,0.872,0,1.3,0
			c0.049,0.746,0.08,1.505,0.016,2.267c-0.444,0.047-0.888,0.031-1.316,0C101.25,79.297,101.25,78.537,101.297,77.792
			L101.297,77.792z"/>
		<path fill="#8B8E91" stroke="#8B8E91" stroke-width="0.0938" stroke-miterlimit="10" d="M260.382,80.836
			c1.967,0.062,3.932,0,5.899,0.031c-0.016,0.412,0.222,1.045-0.19,1.3c-1.902,0-3.806,0-5.709,0
			C260.382,81.723,260.382,81.279,260.382,80.836L260.382,80.836z"/>
		<path fill="#8B8E91" stroke="#8B8E91" stroke-width="0.0938" stroke-miterlimit="10" d="M260.382,84.436
			c0.983,0.016,1.983-0.047,2.966,0.031c0,0.428,0.016,0.842,0,1.268c-0.982,0.017-1.982-0.031-2.966,0.032
			C260.382,85.322,260.382,84.879,260.382,84.436L260.382,84.436z"/>
		<path fill="#8B8E91" stroke="#8B8E91" stroke-width="0.0938" stroke-miterlimit="10" d="M260.382,88.004
			c2.998,0.078,5.995,0.031,8.976,0.031c0,0.428,0,0.873,0,1.315c-2.98,0.079-5.978-0.032-8.976,0.048
			C260.382,88.938,260.382,88.479,260.382,88.004L260.382,88.004z"/>
		<path fill="#8B8E91" stroke="#8B8E91" stroke-width="0.0938" stroke-miterlimit="10" d="M260.382,91.73
			c0.983,0,1.983-0.063,2.966,0.031c0,0.412,0.016,0.841,0.016,1.253c-0.998,0.016-1.981-0.016-2.981,0.031
			C260.382,92.603,260.398,92.157,260.382,91.73L260.382,91.73z"/>
		<path fill="#8B8E91" stroke="#8B8E91" stroke-width="0.0938" stroke-miterlimit="10" d="M260.382,95.219
			c1.745-0.016,3.489,0.016,5.232,0c0.255-0.016,0.494,0.016,0.731,0.095c-0.016,0.397-0.016,0.778,0,1.175
			c-1.982,0.125-3.98-0.064-5.964,0.078C260.382,96.122,260.382,95.662,260.382,95.219L260.382,95.219z"/>
		<path fill="#8B8E91" stroke="#8B8E91" stroke-width="0.0938" stroke-miterlimit="10" d="M260.382,98.771
			c0.983,0.079,1.983,0.017,2.966,0.032c0,0.443,0,0.889,0,1.332c-0.982,0-1.982-0.047-2.966,0.031
			C260.382,99.691,260.382,99.23,260.382,98.771L260.382,98.771z"/>
		<path fill="#8B8E91" stroke="#8B8E91" stroke-width="0.0938" stroke-miterlimit="10" d="M260.382,102.403
			c2.998,0.095,5.995,0.015,8.991,0.046c-0.016,0.43-0.016,0.873-0.016,1.315c-2.98,0.033-5.978-0.046-8.976,0.033
			C260.382,103.338,260.382,102.879,260.382,102.403L260.382,102.403z"/>
		<path fill="#8B8E91" stroke="#8B8E91" stroke-width="0.0938" stroke-miterlimit="10" d="M260.382,106.049
			c0.983,0.096,1.983,0.016,2.966,0.048c0,0.429,0,0.871,0,1.316c-0.982,0.016-1.982-0.063-2.949,0.047
			C260.382,106.984,260.382,106.525,260.382,106.049L260.382,106.049z"/>
		<path fill="#8B8E91" stroke="#8B8E91" stroke-width="0.0938" stroke-miterlimit="10" d="M260.382,109.553
			c1.951,0.079,3.9,0.018,5.852,0.033c0.112,0.428,0.128,0.903,0,1.332c-1.951,0-3.9-0.049-5.852,0.03
			C260.382,110.474,260.382,110.014,260.382,109.553L260.382,109.553z"/>
		<path fill="#8B8E91" stroke="#8B8E91" stroke-width="0.0938" stroke-miterlimit="10" d="M260.382,113.153
			c0.983,0.097,1.983,0.017,2.981,0.048c-0.016,0.429-0.016,0.841-0.016,1.252c-0.982,0.096-1.982,0.032-2.966,0.049
			C260.382,114.042,260.382,113.598,260.382,113.153L260.382,113.153z"/>
		<path fill="#8B8E91" stroke="#8B8E91" stroke-width="0.0938" stroke-miterlimit="10" d="M260.382,116.785
			c2.966,0.016,5.948-0.03,8.912,0.031c0.063,0.413,0.063,0.84,0.018,1.27c-2.981,0.03-5.964-0.049-8.93,0.047
			C260.382,117.673,260.382,117.229,260.382,116.785L260.382,116.785z"/>
		<path fill="#8B8E91" stroke="#8B8E91" stroke-width="0.0938" stroke-miterlimit="10" d="M260.382,120.449
			c1,0.016,1.983-0.049,2.981,0.031c-0.016,0.412-0.016,0.839,0,1.252c-0.998,0.096-1.981,0.015-2.981,0.048
			C260.382,121.336,260.382,120.893,260.382,120.449L260.382,120.449z"/>
		<path fill="#8B8E91" stroke="#8B8E91" stroke-width="0.0938" stroke-miterlimit="10" d="M260.382,123.936
			c1.983,0.065,3.981-0.109,5.964,0.08c-0.016,0.397-0.016,0.793,0,1.174c-0.443,0.111-0.904,0.08-1.365,0.08
			c-1.537,0-3.059-0.017-4.599,0C260.382,124.824,260.382,124.381,260.382,123.936L260.382,123.936z"/>
		<path fill="#8B8E91" stroke="#8B8E91" stroke-width="0.0938" stroke-miterlimit="10" d="M260.382,127.474
			c0.983,0.095,1.983,0.031,2.966,0.047c0.016,0.444,0.016,0.888,0,1.333c-0.982,0-1.982-0.064-2.966,0.047
			C260.382,128.426,260.382,127.949,260.382,127.474L260.382,127.474z"/>
	</g>
</g>
<g id="Layer_6" display="none">
	<rect x="15" y="18.157" display="inline" fill="none" width="314.178" height="113.824"/>
	<path id="squarespace-logo-horizontal" display="inline" d="M139.333,74.451v-0.047c0-4.555-3.373-8.495-8.4-8.495
		c-5.025,0-8.448,3.988-8.448,8.542v0.047c0,4.554,3.377,8.494,8.402,8.494c2.052,0,3.822-0.66,5.214-1.77l2.17,1.98l1.274-1.393
		l-2.194-1.815C138.625,78.485,139.333,76.525,139.333,74.451z M135.96,78.768l-3.044-2.761l-1.251,1.393l3.068,2.62
		c-1.015,0.778-2.338,1.248-3.8,1.248c-3.774,0-6.511-3.066-6.511-6.817v-0.047c0-3.751,2.688-6.772,6.465-6.772
		c3.774,0,6.512,3.067,6.512,6.82v0.047C137.399,76.125,136.856,77.611,135.96,78.768z M154.906,75.795
		c0,3.61-1.934,5.45-4.978,5.45c-3.163,0-5.05-2.005-5.05-5.568v-9.486h-1.863v9.604c0,4.67,2.784,7.172,6.866,7.172
		c4.129,0,6.89-2.502,6.89-7.314v-9.462h-1.864V75.795z M266.585,81.268c-3.634,0-6.396-2.995-6.396-6.817v-0.047
		c0-3.799,2.736-6.772,6.396-6.772c2.24,0,3.797,0.943,5.189,2.266l1.274-1.369c-1.65-1.558-3.444-2.619-6.441-2.619
		c-4.861,0-8.353,3.869-8.353,8.542v0.047c0,4.743,3.516,8.494,8.281,8.494c2.997,0,4.885-1.156,6.607-2.901l-1.228-1.204
		C270.335,80.396,268.848,81.268,266.585,81.268z M278.262,81.008v-5.78h9.017V73.53h-9.017v-5.64h10.077v-1.7h-11.94v16.517h12.059
		v-1.7H278.262z M233.383,66.191h-6.181v16.517h1.864V76.88h4.012c3.516,0,6.488-1.841,6.488-5.404v-0.046
		C239.566,68.173,237.112,66.191,233.383,66.191z M237.68,71.548c0,2.17-1.794,3.633-4.531,3.633h-4.082v-7.266h4.177
		c2.667,0,4.437,1.226,4.437,3.586V71.548z M114.04,73.554c-3.634-0.778-4.482-1.653-4.482-3.209v-0.047
		c0-1.486,1.369-2.667,3.515-2.667c1.698,0,3.234,0.542,4.766,1.792l1.086-1.438c-1.675-1.344-3.397-2.029-5.805-2.029
		c-3.139,0-5.428,1.91-5.428,4.506v0.047c0,2.714,1.746,3.942,5.546,4.767c3.468,0.731,4.293,1.604,4.293,3.138v0.047
		c0,1.629-1.463,2.807-3.681,2.807c-2.288,0-3.939-0.777-5.663-2.333l-1.155,1.368c1.982,1.769,4.128,2.643,6.748,2.643
		c3.28,0,5.639-1.841,5.639-4.672v-0.048C119.419,75.7,117.721,74.354,114.04,73.554z M198.157,75.228h9.013V73.53h-9.013v-5.64
		h10.075v-1.7h-11.939v16.517h12.058v-1.7h-10.193V75.228z M218.023,73.554c-3.632-0.778-4.482-1.653-4.482-3.209v-0.047
		c0-1.486,1.369-2.667,3.516-2.667c1.697,0,3.234,0.542,4.767,1.792l1.085-1.438c-1.674-1.344-3.397-2.029-5.805-2.029
		c-3.138,0-5.427,1.91-5.427,4.506v0.047c0,2.714,1.747,3.942,5.546,4.767c3.468,0.731,4.294,1.604,4.294,3.138v0.047
		c0,1.629-1.465,2.807-3.681,2.807c-2.288,0-3.939-0.777-5.663-2.333l-1.155,1.368c1.981,1.769,4.129,2.643,6.748,2.643
		c3.279,0,5.638-1.841,5.638-4.672v-0.048C223.403,75.7,221.706,74.354,218.023,73.554z M166.703,66.073l-7.525,16.635h1.911
		l1.958-4.365h8.991l1.933,4.365h2.007l-7.527-16.635H166.703z M163.778,76.668l3.775-8.423l3.752,8.423H163.778z M247.424,66.073
		l-7.527,16.635h1.912l1.957-4.365h8.992l1.934,4.365h2.006l-7.528-16.635H247.424z M244.499,76.668l3.776-8.423l3.75,8.423H244.499
		z M192.305,71.147v-0.048c0-1.298-0.472-2.454-1.273-3.256c-1.038-1.038-2.667-1.652-4.694-1.652h-7.103v16.517h1.861v-6.417h4.719
		l4.792,6.417h2.288l-5.072-6.748C190.417,75.487,192.305,73.883,192.305,71.147z M181.096,74.614v-6.7h5.1
		c2.664,0,4.222,1.226,4.222,3.255v0.047c0,2.124-1.77,3.397-4.247,3.397H181.096z M62.189,76.459c0.767,0.767,2.011,0.767,2.778,0
		l12.502-12.501c1.534-1.535,4.021-1.535,5.556,0c0.768,0.767,2.012,0.767,2.779,0c0.767-0.768,0.767-2.012,0-2.779
		c-3.069-3.069-8.044-3.069-11.113,0L62.189,73.68C61.422,74.447,61.422,75.692,62.189,76.459z M81.636,68.124
		c0.767-0.767,0.767-2.011,0-2.778c-0.767-0.767-2.01-0.767-2.777,0L66.356,77.848c-1.535,1.534-4.022,1.534-5.556,0
		c-1.535-1.534-1.535-4.022,0-5.558l12.261-12.26c-1.534-1.535-4.022-1.535-5.557,0l-9.483,9.482c-3.068,3.069-3.068,8.044,0,11.113
		c3.069,3.068,8.043,3.068,11.113,0L81.636,68.124z M83.026,69.513L70.523,82.015c-0.767,0.768-0.767,2.012,0,2.778
		c0.768,0.768,2.012,0.768,2.779,0l12.502-12.501c1.534-1.535,4.022-1.535,5.556,0c1.534,1.534,1.534,4.022,0,5.557L79.099,90.109
		c1.534,1.535,4.021,1.535,5.556,0l9.484-9.483c3.068-3.069,3.068-8.044,0-11.113C91.069,66.445,86.094,66.445,83.026,69.513z
		 M89.971,73.68c-0.767-0.767-2.012-0.767-2.779,0L74.691,86.182c-1.534,1.535-4.022,1.535-5.557,0
		c-0.767-0.767-2.011-0.767-2.778,0c-0.768,0.768-0.768,2.012,0,2.779c3.068,3.068,8.044,3.068,11.113,0l12.502-12.502
		C90.738,75.692,90.738,74.447,89.971,73.68z"/>
</g>
<g id="Layer_4">
</g>
<g id="Layer_7" display="none">
	<g display="inline">
		<path d="M286.825,52.372c-1.021,0-1.98,0.415-2.633,1.229c-0.706,0.889-0.879,1.951-1.019,3.04
			c-0.199,1.53-0.372,3.06-0.538,4.589c-0.171,1.52-0.259,3.047-0.501,4.545c-0.483,2.91-1.092,5.794-1.882,8.645
			c-0.766,2.742-1.642,5.513-2.85,8.104c-0.613,1.288-1.284,2.556-2.062,3.754c-0.344,0.51-0.683,1.006-1.08,1.457
			c-0.4,0.47-0.854,1.02-1.395,1.348c-0.35,0.211-0.798,0.537-1.21,0.537c-0.55,0.002-1.018-0.444-1.368-0.804
			c-0.96-0.959-1.601-2.172-2.204-3.37c-1.278-2.573-2.049-5.422-2.727-8.199c-0.723-2.957-1.24-5.931-1.683-8.933
			c-0.438-3.026-0.754-6.052-1.003-9.102c-0.069-0.733-0.128-1.461-0.166-2.194c-0.059-0.657-0.059-1.347-0.231-1.978
			c-0.259-0.988-0.911-1.862-1.854-2.322c-1.7-0.811-4.197-0.059-4.857,1.808c-0.225,0.593-0.244,1.256-0.343,1.878
			c-0.129,0.773-0.259,1.547-0.377,2.307c-0.266,1.479-0.533,2.964-0.814,4.447c-1.1,5.696-2.438,11.371-4.407,16.811
			c-0.906,2.438-1.995,4.837-3.455,6.979c-0.658,0.961-1.471,1.889-2.501,2.443c-1.18,0.625-2.279-0.159-3.223-0.832
			c-0.188-0.122-0.56-0.516-0.797-0.709c-0.73-0.619-1.343-1.348-1.983-2.064c-1.31-1.479-2.501-3.062-3.633-4.688
			c-2.25-3.288-4.211-6.769-6.132-10.271c2.645-1.379,5.265-2.808,7.775-4.4c2.56-1.604,4.991-3.361,7.422-5.128
			c1.183-0.849,2.44-1.63,3.542-2.571c0.853-0.717,1.44-1.762,1.432-2.877c0-2.172-2.231-3.913-4.333-3.444
			c-0.679,0.151-1.19,0.577-1.729,0.973c-0.741,0.52-1.472,1.059-2.204,1.579c-1.461,1.062-2.928,2.107-4.412,3.139
			c-2.95,2.054-6.029,3.915-9.213,5.626c-0.107-12.417,0.049-24.827,0.632-37.233c0.037-0.951,0.199-1.961-0.21-2.875
			c-0.242-0.59-0.701-1.078-1.262-1.388c-1.14-0.631-2.603-0.609-3.742,0.005c-0.596,0.312-1.089,0.792-1.421,1.393
			c-0.468,0.886-0.419,1.895-0.468,2.875c-0.141,3.113-0.27,6.23-0.371,9.345c-0.373,12.443-0.389,24.884-0.137,37.333
			c0.107,6.232,0.297,12.456,0.519,18.672c0.048,0.984-0.022,2.002,0.441,2.889c0.317,0.602,0.809,1.076,1.401,1.386
			c1.139,0.617,2.608,0.64,3.734,0.013c0.573-0.312,1.024-0.797,1.294-1.39c0.397-0.92,0.27-1.929,0.229-2.892
			c-0.108-3.11-0.197-6.214-0.299-9.332c1.552,2.421,3.189,4.781,5.022,6.996c1.691,2.042,3.513,4.035,5.802,5.426
			c2.072,1.267,4.491,1.979,6.922,1.59c2.35-0.371,4.451-1.697,6.073-3.399c1.973-2.043,3.362-4.593,4.48-7.168
			c1.282-2.901,2.302-5.901,3.216-8.933c1.089,5.015,2.436,10.331,5.413,14.602c1.377,1.983,3.139,3.739,5.461,4.548
			c2.199,0.761,4.631,0.572,6.71-0.49c2.297-1.174,4.145-3.206,5.575-5.312c0.137,12.416,1.121,24.795,1.771,37.185
			c0.079,1.541,0.15,3.102,0.231,4.65c0.038,1.051-0.06,2.221,0.371,3.209c0.547,1.26,1.816,2.008,3.168,2.079
			c1.272,0.079,2.62-0.46,3.251-1.623c0.44-0.804,0.389-1.652,0.361-2.533c-0.068-1.552-0.141-3.104-0.22-4.652
			c-0.633-12.382-1.612-24.75-1.812-37.146c-0.1-6.201,0.032-12.399,0.423-18.591c0.086-1.547,0.2-3.094,0.32-4.646
			c0.115-1.536,0.329-3.053,0.518-4.573c0.211-1.512,0.384-3.038,0.522-4.557c0.065-0.719,0.124-1.444,0.189-2.18
			c0.06-0.655,0.173-1.334,0.011-1.98C289.926,53.499,288.377,52.372,286.825,52.372 M180.096,43.922
			c1.833,0,3.415-1.038,4.054-2.778c0.56-1.536,0.36-3.4-0.653-4.707c-1.158-1.482-3.287-1.919-5.039-1.293
			c-1.611,0.587-2.603,2.166-2.721,3.855C175.516,41.642,177.375,43.922,180.096,43.922 M182.931,55.918
			c0.188-2.242-2.269-3.915-4.322-3.471c-0.981,0.21-1.783,0.857-2.271,1.725c-0.59,1.094-0.579,2.387-0.659,3.592
			c-0.422,6.184-0.292,12.373,0.008,18.547c0.149,3.085,0.342,6.187,0.531,9.27c0.08,1.537,0.18,3.077,0.271,4.629
			c0.038,0.739,0.067,1.482,0.107,2.221c0.029,0.525,0.029,1.066,0.16,1.584c0.721,2.641,4.623,3.552,6.353,1.336
			c0.442-0.565,0.631-1.271,0.631-1.988c0-1.477-0.14-2.967-0.229-4.452c-0.181-3.09-0.381-6.18-0.542-9.263
			c-0.351-6.173-0.611-12.357-0.369-18.54C182.67,59.373,182.78,57.643,182.931,55.918 M145.444,89.433
			C145.231,89.336,145.309,89.368,145.444,89.433 M144.98,89.104C144.711,88.88,144.822,88.97,144.98,89.104 M170.172,92.02
			c0.715,1.248,0.633,2.735-0.287,3.858c-0.823,1.014-2.194,1.625-3.485,1.434c-1.868-0.27-2.649-2.112-3.327-3.655
			c-1.013-2.251-1.685-4.654-2.143-7.091c-1.97,4.145-4.993,7.992-9.444,9.552c-4.042,1.421-8.634,0.71-11.715-2.364
			c-3.423-3.42-4.544-8.606-5.05-13.256c-0.604-5.652-0.284-11.5,0.367-17.158c0.32-2.852,0.713-5.815,1.552-8.564
			c0.446-1.417,1.68-2.328,3.152-2.328c1.341,0,2.721,0.69,3.39,1.886c0.352,0.652,0.463,1.401,0.352,2.118
			c-0.223,1.375-0.633,2.714-0.875,4.077c-1.019,5.883-1.385,12.021-0.949,17.987c0.221,2.78,0.722,5.459,1.648,8.102
			c0.413,0.865,0.976,2.122,1.844,2.639c0.959,0.598,2.269,0.598,3.362,0.351c2.054-0.447,3.573-1.986,4.673-3.707
			c1.51-2.372,2.453-5.013,3.202-7.702c1.61-5.709,2.338-11.629,3.077-17.496c0.184-1.506,0.374-2.999,0.624-4.476
			c0.161-0.945,0.26-1.935,0.9-2.694c0.911-1.056,2.475-1.299,3.772-0.935c1.369,0.38,2.468,1.474,2.528,2.947
			c0.031,0.602-0.049,1.232-0.09,1.849c-0.041,0.8-0.092,1.608-0.127,2.41c-0.091,1.537-0.164,3.084-0.198,4.639
			c-0.176,4.892-0.162,9.8,0.215,14.694c0.184,2.335,0.49,4.661,0.981,6.957C168.575,88.142,169.14,90.182,170.172,92.02
			 M114.256,89.592c3.035-4.445,5.037-9.552,5.824-14.86c0.812-5.504,0.272-11.171-1.376-16.475
			c-1.645-5.29-4.374-10.38-8.025-14.553c-3.293-3.756-7.172-7.09-11.716-9.269c-5.022-2.42-10.815-3.317-16.27-1.897
			c-4.647,1.221-8.663,3.659-11.754,7.359c-0.171,0.199-0.35,0.404-0.501,0.62c1.943-0.87,4.344-0.593,5.384,1.472
			c0.792,1.605,0.41,3.998-1.242,4.893c-1.251,0.666-2.53,1.186-3.731,1.951c-1.057,0.679-2.049,1.434-2.981,2.302
			c-0.508,0.471-0.997,0.959-1.469,1.471c-0.202,0.221-0.131,0.62-0.121,0.911c0.012,0.372,0.019,0.733,0.031,1.11
			c0.071,1.304,0.229,2.603,0.482,3.894c1.019,5.233,3.449,10.118,6.618,14.375c0.722,0.965,1.433,1.897,1.552,3.129
			c0.113,1.139-0.356,2.255-1.208,3.005c-1.4,1.201-3.961,1.419-5.195-0.151c-3.462-4.457-6.381-9.426-8.154-14.804
			c-2.818,10.841,0.211,23.158,8.364,30.938c3.832,3.681,8.644,6.019,13.808,7.244c5.461,1.299,11.166,1.258,16.488-0.693
			c1.5-0.547,2.95-1.253,4.332-2.051c-3.904-4.278-7.575-8.751-10.997-13.418c-0.84-1.175-1.692-2.36-2.521-3.552
			c-0.749-1.094-1.65-2.192-2.231-3.39c-0.723-1.479-0.249-3.104,1.013-4.114c1.202-0.951,2.939-1.269,4.338-0.553
			c0.943,0.489,1.451,1.353,2.023,2.215c0.822,1.202,1.631,2.4,2.471,3.584c3.363,4.691,6.984,9.177,10.854,13.452
			c0.231,0.252,0.463,0.517,0.689,0.764c0.11,0.127,0.221,0.254,0.361,0.384c0.059,0.173,0.14,0.173,0.231,0
			c0.092-0.076,0.178-0.154,0.249-0.229c0.549-0.514,1.091-1.051,1.6-1.609C112.49,91.977,113.43,90.817,114.256,89.592
			 M126.973,116.831c-0.796,0.806-1.908,1.188-3.043,1.043c-1.255-0.164-2.167-0.94-3.109-1.732
			c-2.28-1.897-4.511-3.855-6.704-5.869c-1.092-0.997-2.147-2.015-3.212-3.05c-0.512-0.485-1.029-0.992-1.509-1.484
			c-0.14-0.128-0.259-0.246-0.388-0.375c-0.162-0.161-0.173-0.305-0.383-0.161c-0.318,0.193-0.627,0.396-0.949,0.587
			c-2.269,1.362-4.69,2.484-7.226,3.319c-9.34,3.083-19.997,1.648-28.682-2.878c-8.364-4.362-14.655-11.755-17.668-20.686
			c-2.929-8.69-2.96-18.493,0.172-27.137c0.76-2.118,1.737-4.168,2.91-6.101c0.272-0.458,0.569-0.916,0.87-1.366
			c0.152-0.218,0.308-0.444,0.459-0.655c0.172-0.248,0.46-0.512,0.501-0.798c0.183-1.209,0.423-2.403,0.722-3.583
			c1.228-4.656,3.573-9.027,6.922-12.519c7.235-7.544,18.337-10.622,28.44-8.245c9.755,2.306,18.122,8.911,23.864,16.976
			c5.464,7.707,8.792,17.021,9.051,26.494c0.293,10.083-3.19,19.873-9.537,27.689c-1.169,1.444-2.425,2.813-3.768,4.09
			c2.993,2.965,6.083,5.821,9.276,8.569c0.809,0.695,1.628,1.393,2.451,2.077c0.639,0.528,1.203,1.013,1.461,1.83
			C128.344,114.195,127.986,115.832,126.973,116.831 M212.261,59.342c-2.331,0.683-4.599,1.668-6.551,3.142
			c-1.912,1.447-3.362,3.268-4.494,5.371c-2.526,4.737-3.021,10.428-3.162,15.704c-0.087,3.083-0.036,6.159-0.018,9.237
			c0.011,1.522-0.52,2.891-1.999,3.514c-1.201,0.481-2.673,0.372-3.734-0.379c-1.649-1.156-1.371-3.21-1.398-4.991
			c-0.084-6.216-0.332-12.425-0.392-18.631c-0.04-3.111-0.031-6.219,0.06-9.32c0.038-1.549,0.108-3.105,0.188-4.651
			c0.085-1.248,0-2.667,0.521-3.848c0.911-2.037,3.387-2.727,5.223-1.477c0.862,0.593,1.522,1.568,1.543,2.651
			c0.007,0.738-0.091,1.512-0.143,2.258c-0.051,0.787-0.089,1.584-0.116,2.38c1.689-2.035,3.777-3.727,6.063-5.047
			c1.1-0.652,2.259-1.213,3.448-1.693c1.11-0.449,2.291-0.948,3.46-1.161c3.014-0.574,5.05,3.112,3.464,5.559
			C213.765,58.645,213.051,59.113,212.261,59.342"/>
	</g>
</g>
<g id="Layer_8">
	<g id="layer1" transform="translate(1427.1504,-1141.058)" inkscape:groupmode="layer" inkscape:label="Layer 1">
		<g id="g3128" transform="matrix(0.37570303,0,0,0.37570303,-1141.6023,902.42898)">
			<g id="g3013" transform="matrix(0.1991992,0,0,0.1991992,-607.5723,641.78634)">
				<path id="path3017" sodipodi:nodetypes="ccccccscccccccccccc" inkscape:connector-curvature="0" fill="#010101" d="
					M1069.159,1082.132c-5.193-3.941-3.256-8.142-0.104-11.796l44.933-52.978c3.627-4.032,7.079-3.536,11.202,0.065
					c40.379,34.801,76.694,55.209,134.532,55.209c36.993,0,73.986-14.132,73.986-51.242c0-12.161-4.071-22.561-11.287-29.882
					c-46.623-47.236-238.726-22.822-238.726-172.08c0-65.341,47.497-137.299,160.323-137.299c68.995,0,121.19,24.036,162.15,55.757
					c6.172,4.867,4.632,8.26,1.631,11.992l-39.616,55.966c-3.81,4.893-6.394,4.998-13.571,0
					c-23.188-17.87-63.13-41.789-113.035-41.789c-41.11,0-67.573,18.705-67.573,48.659c0,89.214,250.014,32.002,250.014,201.968
					c0,82.311-63.743,139.256-165.51,139.256C1186.611,1153.939,1124.642,1129.604,1069.159,1082.132z"/>
				<path id="path3019" inkscape:connector-curvature="0" fill="#010101" d="M1650.545,791.479c-55.053,0-83.447,24.858-108.2,51.34
					v-36.954c0-4.841-1.957-7.144-6.942-7.144h-73.399c-7.516,0-8.442,1.892-8.442,8.449v435.515c0,4.998,1.97,7.255,7.242,7.255
					h73.099c5.611,0,8.442-1.788,8.442-8.469v-136.085c18.934,24.323,56.514,49.246,107.861,49.246
					c80.576,0,163.527-59.854,163.527-181.195C1813.732,844.443,1723.514,791.479,1650.545,791.479z M1632.825,870.391
					c45.553,0,90.767,35.806,90.767,103.685c0,60.794-39.707,101.754-90.767,101.754c-54.857,0-92.294-48.698-92.294-102.354
					C1540.531,920.178,1575.567,870.391,1632.825,870.391z"/>
				<g id="flowRoot3023" transform="matrix(13.258321,0,0,13.518561,-7360.2406,-3893.01)">
					<path id="path3032" sodipodi:nodetypes="ccccccccssssssssccccccccc" inkscape:connector-curvature="0" fill="#010101" d="
						M721.744,359.997v-0.097c0-1.869-0.355-3.616-1.065-5.243c-0.708-1.627-1.681-3.044-2.923-4.252
						c-1.239-1.209-2.713-2.158-4.422-2.852c-1.707-0.691-3.559-1.038-5.556-1.038c-2.028,0-3.898,0.355-5.606,1.063
						c-1.708,0.709-3.188,1.675-4.444,2.9c-1.257,1.225-2.24,2.651-2.948,4.277c-0.711,1.625-1.065,3.374-1.065,5.242v0.094
						c0,1.87,0.354,3.619,1.065,5.247c0.708,1.625,1.682,3.042,2.922,4.252c1.24,1.208,2.716,2.158,4.423,2.851
						c1.707,0.69,3.559,1.037,5.556,1.037c2.029,0,3.897-0.351,5.606-1.062c1.707-0.708,3.188-1.676,4.447-2.9
						c1.255-1.224,2.237-2.65,2.945-4.277C721.389,363.613,721.744,361.865,721.744,359.997L721.744,359.997z M707.764,367.626
						c-4.81,0-7.358-4.167-7.358-7.695c0-4.356,3.124-7.556,7.252-7.556c3.624,0,7.374,2.816,7.374,7.716
						C715.031,364.813,711.535,367.626,707.764,367.626L707.764,367.626z"/>
				</g>
				<path id="path3034" sodipodi:nodetypes="ccccccccccccccccccccccccc" inkscape:connector-curvature="0" fill="#010101" d="
					M2382.565,1072.881c19.404,0,34.031-6.446,41.234-9.708c6.916-3.862,11.9-1.983,11.9,5.546v60.376
					c0,3.732-2.049,5.781-5.246,7.529c-19.599,9.826-39.303,16.82-70.855,16.82c-68.976,0-102.693-37.554-102.693-102.85V876.641
					h-36.25c-4.698,0-6.042-2.46-6.042-6.048v-67.057c0-3.073,1.553-4.815,4.841-4.815h37.45v-85.176
					c0-3.96,1.331-7.249,7.255-7.249h73.673c6.394,0,8.456,2.734,8.456,8.456v83.969h84.203c3.693,0,6.394,1.931,6.394,7.229v63.443
					c0,4.939-2.244,7.249-7.229,7.249h-83.368v158.255C2346.29,1056.087,2352.371,1072.881,2382.565,1072.881z"/>
				<path id="path3036" sodipodi:nodetypes="ccccccccc" inkscape:connector-curvature="0" fill="#010101" d="M2479.191,1147.232
					c-4.776,0-7.242-2.27-7.242-7.255V805.95c0-4.639,1.957-7.229,7.242-7.229h74.756c5.65,0,7.399,3.164,7.399,7.301v333.956
					c0,5.702-2.545,7.255-7.268,7.255H2479.191z"/>
				
					<path id="path3038" sodipodi:rx="19.319168" sodipodi:cx="1331.2548" sodipodi:cy="176.18112" sodipodi:ry="19.319168" sodipodi:type="arc" fill="#010101" d="
					M2572.738,700.666c0,30.677-24.871,55.542-55.561,55.542c-30.665,0-55.535-24.864-55.535-55.542
					c0-30.671,24.871-55.542,55.535-55.542C2547.867,645.124,2572.738,669.995,2572.738,700.666z"/>
				
					<path id="path3040" sodipodi:nodetypes="ccccccccccccccccccccccccccccccccccccc" inkscape:connector-curvature="0" fill="#010101" d="
					M2645.889,1147.232c-4.189,0-6.029-2.27-6.029-6.042v-264.55h-36.262l-6.029-6.048v-65.726c0-4.123,1.24-6.146,6.029-6.146
					h36.262v-16.318c0-64.448,26.019-116.858,109.57-116.858c25.758,0,52.391,6.1,62.373,8.514c4.228,1.298,5.637,3.145,5.637,6.87
					v64.03c0,6.537-4.685,7.712-12.892,4.763c-6.29-2.173-21.296-6.446-37.737-6.446c-30.951,0-39.968,18.314-39.968,46.369v9.075
					h131.662c3.654,0,5.285,1.488,7.32,6.851l88.744,232.691l80.706-231.184c2.14-5.898,3.354-7.757,8.064-7.757h78.514
					c7.581,0,7.516,5.272,4.528,12.468l-131.531,341.107c-19.573,44.94-38.794,98.74-117.086,98.74
					c-37.437,0-57.662-8.834-82.468-20.474c-5.741-2.61-3.158-8.39-0.039-14.262l22.822-50.198
					c2.662-5.833,6.563-5.063,11.731-2.544c6.211,3.119,21.961,10.87,39.655,10.87c22.835,0,32.426-14.549,41.377-33.17
					l-110.327-265.215h-72.473v264.55c0,3.915-1.879,6.042-6.042,6.042H2645.889z"/>
				<g id="g3099" transform="matrix(0.55912573,0,0,0.55912573,-580.3448,-883.96648)">
					
						<path id="path3103" sodipodi:nodetypes="cccccccccccc" inkscape:connector-curvature="0" fill="#7B9F3E" stroke="#038181" stroke-width="0.25" d="
						M1234.263,3456.121l3.022,29.545l22.836,10.642c1.319-35.053,23.069-56.291,51.833-61.448
						c91.064-19.767,203.108-38.717,333.613-38.717c205.232,0,382.272,50.923,525.507,138.276
						c21.167,12.812,28.087,28.845,31.109,50.083l79.582-51.53l-20.117-79.278l-594.027-159.373l-555.403,70.83L1234.263,3456.121z"
						/>
					
						<path id="path3105" sodipodi:nodetypes="cccccccccc" inkscape:connector-curvature="0" fill="#83A73E" stroke="#282A74" stroke-width="0.25" d="
						M1196.736,3235.159l26.955-10.175c0.945-33.816,19.184-61.915,58.181-72.545c100.854-29.616,219.328-48.146,348.712-48.146
						c248.232,0,475.728,64.984,641.916,165.219c26.617,16.336,36.803,28.402,41.844,71.157l122.22-67.166L1923.17,3033.3
						l-858.292,50.071L1196.736,3235.159z"/>
					
						<path id="path3107" sodipodi:nodetypes="ccccccccc" inkscape:connector-curvature="0" fill="#81A83F" stroke="#010101" stroke-width="0.25" d="
						M1162.92,2950.019c-2.707-50.491,23.77-86.84,62.592-97.995c127.622-37.06,264.498-55.24,426.205-55.24
						c269.002,0,539.206,56.302,736.901,170.517c38.857,21.144,50.083,49.511,52.195,92.919l122.675-80.982l-368.234-311.337
						L1068.297,2788.58L1162.92,2950.019z"/>
					
						<radialGradient id="path3101_1_" cx="127253.7578" cy="53873.6367" r="894.5436" gradientTransform="matrix(0 0.0676 0.0563 0 -1230.1216 -5838.1646)" gradientUnits="userSpaceOnUse">
						<stop  offset="0" style="stop-color:#A9D03E"/>
						<stop  offset="0.0711" style="stop-color:#A9D03E"/>
						<stop  offset="0.2468" style="stop-color:#A2CC3E"/>
						<stop  offset="0.4557" style="stop-color:#95C93F"/>
						<stop  offset="0.5966" style="stop-color:#8EC541"/>
						<stop  offset="0.7966" style="stop-color:#85BC41"/>
						<stop  offset="1" style="stop-color:#7AB643"/>
					</radialGradient>
					<path id="path3101" inkscape:connector-curvature="0" fill="url(#path3101_1_)" d="M1782.385,2323.53
						c-494.025,0-894.547,400.487-894.547,894.535c0,494.025,400.522,894.523,894.547,894.523
						c494.071,0,894.558-400.499,894.558-894.523C2676.943,2724.017,2276.456,2323.53,1782.385,2323.53z M1651.134,2790.412
						c262.678,0,539.043,54.015,740.914,172.583c27.212,15.403,46.104,38.671,46.104,81.25c0,48.776-39.207,83.794-84.389,83.794
						c-18.215,0-29.021-4.399-46.092-13.746c-161.906-97.108-413.183-150.587-656.198-150.587
						c-121.298,0-244.509,12.346-357.359,42.953c-12.999,3.279-29.406,9.802-45.882,9.802c-47.702,0-84.319-37.76-84.319-85.463
						c0-48.624,30.129-75.917,62.638-85.521C1354.056,2807.904,1496.404,2790.412,1651.134,2790.412z M1632.895,3097.77
						c234.147,0,460.675,58.321,638.754,164.928c29.849,17.106,40.841,38.811,40.841,70.667c0,38.764-30.818,70.036-69.71,70.036
						c-19.417,0-31.634-7.842-44.808-15.496c-145.522-86.373-347.195-143.714-568.052-143.714
						c-113.281,0-211.066,15.846-291.978,37.387c-17.422,4.808-27.2,9.942-43.513,9.942c-38.484,0-69.873-31.366-69.873-70.141
						c0-38.017,18.448-64.179,55.637-74.669C1380.743,3119.101,1483.429,3097.77,1632.895,3097.77z M1645.182,3389.935
						c195.745,0,370.195,44.878,520.303,134.845c22.346,13.022,35.462,26.348,35.462,59.418c0,32.299-26.243,55.987-55.637,55.987
						c-14.493,0-24.353-5.041-37.865-13.279c-129.664-78.415-291.313-119.606-462.869-119.606
						c-95.72,0-192.058,12.252-282.153,30.969c-14.656,3.174-33.093,8.868-44.097,8.868c-33.991,0-56.629-27.002-56.629-56.244
						c0-37.597,21.669-56.267,48.659-61.425C1420.825,3404.288,1530.886,3389.935,1645.182,3389.935z"/>
				</g>
			</g>
		</g>
	</g>
</g>
</svg>
