<?xml version="1.0" encoding="utf-8"?>
<!-- Generator: Adobe Illustrator 15.0.0, SVG Export Plug-In . SVG Version: 6.00 Build 0)  -->
<!DOCTYPE svg PUBLIC "-//W3C//DTD SVG 1.1//EN" "http://www.w3.org/Graphics/SVG/1.1/DTD/svg11.dtd">
<svg version="1.1" id="Layer_1" xmlns="http://www.w3.org/2000/svg" xmlns:xlink="http://www.w3.org/1999/xlink" x="0px" y="0px"
	 width="306px" height="139.333px" viewBox="0 0 306 139.333" enable-background="new 0 0 306 139.333" xml:space="preserve">
<polygon fill="#BCBCBC" points="14.302,19.272 149.651,81.205 74.302,117.412 "/>
<polygon fill="#EAEAEA" points="225,117.412 285,19.272 149.651,81.205 "/>
<g>
	<polygon fill="#969696" points="175.984,69.155 285,19.272 165.001,58.342 	"/>
</g>
<polygon fill="#F4F4F4" points="134.302,58.342 14.302,19.272 123.318,69.155 "/>
<g>
	<path fill="#CFCFCE" d="M225,117.411L225,117.411l-75.349-36.207l-75.349,36.207c30.233,7.441,75.349,6.978,75.349,6.978
		S194.768,124.853,225,117.411L225,117.411z"/>
	<polygon fill="#CFCFCE" points="165.001,58.342 149.651,42.063 134.302,58.342 123.318,69.155 149.651,81.205 175.984,69.155 	"/>
</g>
</svg>
